<mxfile host="app.diagrams.net" modified="2024-02-26T03:18:33.100Z" agent="Mozilla/5.0 (Windows NT 10.0; Win64; x64) AppleWebKit/537.36 (KHTML, like Gecko) Chrome/122.0.0.0 Safari/537.36 Edg/122.0.0.0" etag="3lsS5N6KfHC_SRf4t55b" version="23.1.6" type="device" pages="2">
  <diagram id="R2lEEEUBdFMjLlhIrx00" name="Page-1">
    <mxGraphModel dx="1002" dy="665" grid="1" gridSize="10" guides="1" tooltips="1" connect="1" arrows="1" fold="1" page="1" pageScale="1" pageWidth="850" pageHeight="1100" math="0" shadow="0" extFonts="Permanent Marker^https://fonts.googleapis.com/css?family=Permanent+Marker">
      <root>
        <mxCell id="0" />
        <mxCell id="1" parent="0" />
        <mxCell id="rvtpYUwYrWg5UEDi8PUu-6" style="edgeStyle=orthogonalEdgeStyle;rounded=0;orthogonalLoop=1;jettySize=auto;html=1;exitX=1;exitY=0.5;exitDx=0;exitDy=0;entryX=0;entryY=0.5;entryDx=0;entryDy=0;" edge="1" parent="1" source="rvtpYUwYrWg5UEDi8PUu-1" target="rvtpYUwYrWg5UEDi8PUu-2">
          <mxGeometry relative="1" as="geometry" />
        </mxCell>
        <mxCell id="rvtpYUwYrWg5UEDi8PUu-1" value="Empresa" style="whiteSpace=wrap;html=1;align=center;" vertex="1" parent="1">
          <mxGeometry x="120" y="240" width="100" height="40" as="geometry" />
        </mxCell>
        <mxCell id="rvtpYUwYrWg5UEDi8PUu-2" value="EstagiÃ¡rio" style="whiteSpace=wrap;html=1;align=center;" vertex="1" parent="1">
          <mxGeometry x="280" y="240" width="100" height="40" as="geometry" />
        </mxCell>
        <mxCell id="rvtpYUwYrWg5UEDi8PUu-7" style="edgeStyle=orthogonalEdgeStyle;rounded=0;orthogonalLoop=1;jettySize=auto;html=1;exitX=0;exitY=0.5;exitDx=0;exitDy=0;entryX=1;entryY=0.5;entryDx=0;entryDy=0;" edge="1" parent="1" source="rvtpYUwYrWg5UEDi8PUu-3" target="rvtpYUwYrWg5UEDi8PUu-2">
          <mxGeometry relative="1" as="geometry" />
        </mxCell>
        <mxCell id="rvtpYUwYrWg5UEDi8PUu-3" value="Curso" style="whiteSpace=wrap;html=1;align=center;" vertex="1" parent="1">
          <mxGeometry x="440" y="240" width="100" height="40" as="geometry" />
        </mxCell>
      </root>
    </mxGraphModel>
  </diagram>
  <diagram id="TiZ3oc7X7uoEmYdKrH9s" name="Page-2">
    <mxGraphModel dx="1002" dy="665" grid="1" gridSize="10" guides="1" tooltips="1" connect="1" arrows="1" fold="1" page="1" pageScale="1" pageWidth="850" pageHeight="1100" math="0" shadow="0">
      <root>
        <mxCell id="0" />
        <mxCell id="1" parent="0" />
      </root>
    </mxGraphModel>
  </diagram>
</mxfile>
